<?xml version="1.0" encoding="utf-8"?>
<!-- Generator: Adobe Illustrator 24.1.1, SVG Export Plug-In . SVG Version: 6.00 Build 0)  -->
<svg version="1.1" baseProfile="tiny" xmlns="http://www.w3.org/2000/svg" xmlns:xlink="http://www.w3.org/1999/xlink" x="0px"
	 y="0px" viewBox="0 0 38.9 38.9" xml:space="preserve">
<g id="Capa_1">
</g>
<g id="Concepto_final">
</g>
<g id="Icono">
</g>
<g id="Perfil">
</g>
<g id="Variaciones">
</g>
<g id="Colores">
	<path fill="#EA0029" d="M35.2,38.9H3.8c-2.1,0-3.8-1.7-3.8-3.8V3.8C0,1.7,1.7,0,3.8,0h31.4c2.1,0,3.8,1.7,3.8,3.8v31.4
		C38.9,37.2,37.2,38.9,35.2,38.9z"/>
	<g>
		<g>
			<path fill="#FFFFFF" d="M21.6,30.3c-3.6,2-8.3,1.4-11.4-1.7c-3.1-3.1-3.6-7.7-1.7-11.4c0.2-0.4,0.8-0.5,1.2-0.1l5.5,5.5l1.3-1.3
				c0-0.1-0.1-0.2-0.1-0.4c0-0.8,0.7-1.5,1.5-1.5s1.5,0.7,1.5,1.5s-0.7,1.5-1.5,1.5c-0.1,0-0.2,0-0.4-0.1l-1.3,1.3l5.5,5.5
				C22.1,29.5,22.1,30.1,21.6,30.3z M31.5,21.7c0,0.4-0.3,0.8-0.8,0.8h-1.5c-0.4,0-0.7-0.3-0.7-0.7c-0.4-6.1-5.2-11-11.3-11.3
				c-0.4,0-0.7-0.4-0.7-0.7c0,0,0,0,0,0V8.2c0-0.4,0.3-0.8,0.8-0.8c0,0,0,0,0,0C24.9,7.9,31.1,14,31.5,21.7
				C31.5,21.7,31.5,21.7,31.5,21.7z M27,21.7c0,0.4-0.3,0.8-0.8,0.8h-1.5c-0.4,0-0.7-0.3-0.7-0.7c-0.3-3.6-3.2-6.5-6.8-6.8
				c-0.4,0-0.7-0.4-0.7-0.7v-1.5v0c0-0.4,0.3-0.8,0.8-0.8c0,0,0,0,0.1,0C22.4,12.4,26.6,16.5,27,21.7C27,21.7,27,21.7,27,21.7z"/>
		</g>
	</g>
</g>
</svg>
