<?xml version="1.0" encoding="utf-8"?>
<!-- Generator: Adobe Illustrator 24.1.1, SVG Export Plug-In . SVG Version: 6.00 Build 0)  -->
<svg version="1.1" baseProfile="tiny" xmlns="http://www.w3.org/2000/svg" xmlns:xlink="http://www.w3.org/1999/xlink" x="0px"
	 y="0px" viewBox="0 0 185.5 38.9" xml:space="preserve">
<g id="Capa_1">
</g>
<g id="Concepto_final">
</g>
<g id="Icono">
</g>
<g id="Perfil">
</g>
<g id="Variaciones">
</g>
<g id="Colores">
	<path fill="#EA0029" d="M181.7,38.9H3.8c-2.1,0-3.8-1.7-3.8-3.8V3.8C0,1.7,1.7,0,3.8,0h177.9c2.1,0,3.8,1.7,3.8,3.8v31.4
		C185.5,37.2,183.8,38.9,181.7,38.9z"/>
	<g>
		<g>
			<path fill="#FFFFFF" d="M13.6,28.3V14.6H8.3v-3.2h14.6v3.2h-5.4v13.6H13.6z"/>
			<path fill="#FFFFFF" d="M28.1,28.5c-1,0-1.9-0.2-2.6-0.5c-0.7-0.3-1.3-0.8-1.7-1.4c-0.4-0.6-0.6-1.3-0.6-2c0-0.8,0.2-1.4,0.6-2
				c0.4-0.6,1-1,1.8-1.4c0.8-0.3,1.9-0.5,3.2-0.5h3.4v2.2h-3c-0.9,0-1.5,0.1-1.8,0.4c-0.3,0.3-0.5,0.6-0.5,1.1
				c0,0.5,0.2,0.9,0.6,1.1c0.4,0.3,0.9,0.4,1.5,0.4c0.6,0,1.2-0.1,1.7-0.4c0.5-0.3,0.9-0.7,1.1-1.3l0.6,1.7
				c-0.3,0.8-0.8,1.5-1.5,1.9S29.2,28.5,28.1,28.5z M32,28.3v-2.5l-0.2-0.6v-4.5c0-0.8-0.2-1.4-0.7-1.9c-0.5-0.4-1.2-0.7-2.2-0.7
				c-0.7,0-1.4,0.1-2,0.3c-0.7,0.2-1.2,0.5-1.7,0.9l-1.3-2.6c0.7-0.5,1.6-0.9,2.5-1.2s2-0.4,3-0.4c2,0,3.5,0.5,4.6,1.4
				c1.1,0.9,1.6,2.4,1.6,4.3v7.4H32z"/>
			<path fill="#FFFFFF" d="M38.9,28.3V10.5h3.7v17.8H38.9z"/>
			<path fill="#FFFFFF" d="M52.3,28.5c-1.4,0-2.6-0.3-3.7-0.9c-1.1-0.6-1.9-1.4-2.6-2.4c-0.6-1-0.9-2.2-0.9-3.4
				c0-1.3,0.3-2.4,0.9-3.4c0.6-1,1.5-1.8,2.6-2.4s2.3-0.9,3.7-0.9c1.4,0,2.5,0.3,3.6,0.9c1,0.6,1.8,1.4,2.2,2.4L55.2,20
				c-0.3-0.6-0.8-1.1-1.3-1.3s-1.1-0.4-1.6-0.4c-0.6,0-1.2,0.1-1.7,0.4s-0.9,0.7-1.2,1.2s-0.4,1.2-0.4,1.9c0,0.8,0.1,1.4,0.4,1.9
				c0.3,0.5,0.7,0.9,1.2,1.2s1.1,0.4,1.7,0.4c0.6,0,1.1-0.1,1.6-0.4s0.9-0.7,1.3-1.4l2.9,1.6c-0.5,1-1.2,1.8-2.2,2.4
				C54.9,28.2,53.7,28.5,52.3,28.5z"/>
			<path fill="#FFFFFF" d="M64.3,28.5c-1,0-1.9-0.2-2.6-0.5c-0.7-0.3-1.3-0.8-1.7-1.4c-0.4-0.6-0.6-1.3-0.6-2c0-0.8,0.2-1.4,0.6-2
				c0.4-0.6,1-1,1.8-1.4c0.8-0.3,1.9-0.5,3.2-0.5h3.4v2.2h-3c-0.9,0-1.5,0.1-1.8,0.4c-0.3,0.3-0.5,0.6-0.5,1.1
				c0,0.5,0.2,0.9,0.6,1.1c0.4,0.3,0.9,0.4,1.5,0.4c0.6,0,1.2-0.1,1.7-0.4c0.5-0.3,0.9-0.7,1.1-1.3l0.6,1.7
				c-0.3,0.8-0.8,1.5-1.5,1.9S65.4,28.5,64.3,28.5z M68.2,28.3v-2.5L68,25.2v-4.5c0-0.8-0.2-1.4-0.7-1.9c-0.5-0.4-1.2-0.7-2.2-0.7
				c-0.7,0-1.4,0.1-2,0.3c-0.7,0.2-1.2,0.5-1.7,0.9l-1.3-2.6c0.7-0.5,1.6-0.9,2.5-1.2s2-0.4,3-0.4c2,0,3.5,0.5,4.6,1.4
				c1.1,0.9,1.6,2.4,1.6,4.3v7.4H68.2z"/>
			<path fill="#FFFFFF" d="M85.9,28.5c-1,0-1.9-0.2-2.6-0.5c-0.7-0.3-1.3-0.8-1.7-1.4c-0.4-0.6-0.6-1.3-0.6-2c0-0.8,0.2-1.4,0.6-2
				c0.4-0.6,1-1,1.8-1.4c0.8-0.3,1.9-0.5,3.2-0.5H90v2.2h-3c-0.9,0-1.5,0.1-1.8,0.4c-0.3,0.3-0.5,0.6-0.5,1.1c0,0.5,0.2,0.9,0.6,1.1
				c0.4,0.3,0.9,0.4,1.5,0.4c0.6,0,1.2-0.1,1.7-0.4c0.5-0.3,0.9-0.7,1.1-1.3l0.6,1.7c-0.3,0.8-0.8,1.5-1.5,1.9S87,28.5,85.9,28.5z
				 M89.8,28.3v-2.5l-0.2-0.6v-4.5c0-0.8-0.2-1.4-0.7-1.9c-0.5-0.4-1.2-0.7-2.2-0.7c-0.7,0-1.4,0.1-2,0.3c-0.7,0.2-1.2,0.5-1.7,0.9
				l-1.3-2.6c0.7-0.5,1.6-0.9,2.5-1.2s2-0.4,3-0.4c2,0,3.5,0.5,4.6,1.4c1.1,0.9,1.6,2.4,1.6,4.3v7.4H89.8z"/>
			<path fill="#FFFFFF" d="M96.7,28.3V10.5h3.7v17.8H96.7z"/>
			<path fill="#FFFFFF" d="M116.3,28.5c-1.2,0-2.3-0.3-3.3-0.8c-1-0.6-1.7-1.3-2.3-2.3c-0.6-1-0.9-2.2-0.9-3.5
				c0-1.4,0.3-2.5,0.9-3.5c0.6-1,1.3-1.8,2.3-2.3c1-0.5,2.1-0.8,3.3-0.8c1.1,0,2,0.2,2.9,0.7s1.4,1.2,1.9,2.2c0.4,1,0.7,2.2,0.7,3.7
				c0,1.5-0.2,2.7-0.6,3.7c-0.4,1-1.1,1.7-1.9,2.2C118.4,28.2,117.4,28.5,116.3,28.5z M116.9,25.4c0.6,0,1.2-0.1,1.7-0.4
				c0.5-0.3,0.9-0.7,1.2-1.2s0.4-1.2,0.4-1.9c0-0.8-0.1-1.4-0.4-1.9s-0.7-0.9-1.2-1.2c-0.5-0.3-1-0.4-1.7-0.4
				c-0.6,0-1.2,0.1-1.7,0.4c-0.5,0.3-0.9,0.7-1.2,1.2s-0.4,1.2-0.4,1.9c0,0.7,0.1,1.4,0.4,1.9s0.7,0.9,1.2,1.2
				C115.7,25.3,116.3,25.4,116.9,25.4z M120.3,28.3v-2.6l0.1-3.8l-0.2-3.8v-7.5h3.7v17.8H120.3z"/>
			<path fill="#FFFFFF" d="M127,13.7l3.2-3.5h4l-4.3,3.5H127z M127.3,28.3V15.4h3.7v12.9H127.3z"/>
			<path fill="#FFFFFF" d="M138.5,28.5c-1,0-1.9-0.2-2.6-0.5c-0.7-0.3-1.3-0.8-1.7-1.4c-0.4-0.6-0.6-1.3-0.6-2c0-0.8,0.2-1.4,0.6-2
				c0.4-0.6,1-1,1.8-1.4c0.8-0.3,1.9-0.5,3.2-0.5h3.4v2.2h-3c-0.9,0-1.5,0.1-1.8,0.4c-0.3,0.3-0.5,0.6-0.5,1.1
				c0,0.5,0.2,0.9,0.6,1.1c0.4,0.3,0.9,0.4,1.5,0.4c0.6,0,1.2-0.1,1.7-0.4c0.5-0.3,0.9-0.7,1.1-1.3l0.6,1.7
				c-0.3,0.8-0.8,1.5-1.5,1.9S139.7,28.5,138.5,28.5z M142.5,28.3v-2.5l-0.2-0.6v-4.5c0-0.8-0.2-1.4-0.7-1.9
				c-0.5-0.4-1.2-0.7-2.2-0.7c-0.7,0-1.4,0.1-2,0.3c-0.7,0.2-1.2,0.5-1.7,0.9l-1.3-2.6c0.7-0.5,1.6-0.9,2.5-1.2s2-0.4,3-0.4
				c2,0,3.5,0.5,4.6,1.4c1.1,0.9,1.6,2.4,1.6,4.3v7.4H142.5z"/>
		</g>
		<g>
			<path fill="#FFFFFF" d="M167.4,30.3c-3.6,2-8.3,1.4-11.4-1.7c-3.1-3.1-3.6-7.7-1.7-11.4c0.2-0.4,0.8-0.5,1.2-0.1l5.5,5.5l1.3-1.3
				c0-0.1-0.1-0.2-0.1-0.4c0-0.8,0.7-1.5,1.5-1.5s1.5,0.7,1.5,1.5s-0.7,1.5-1.5,1.5c-0.1,0-0.2,0-0.4-0.1l-1.3,1.3l5.5,5.5
				C167.9,29.5,167.9,30.1,167.4,30.3z M177.2,21.7c0,0.4-0.3,0.8-0.8,0.8H175c-0.4,0-0.7-0.3-0.7-0.7c-0.4-6.1-5.2-11-11.3-11.3
				c-0.4,0-0.7-0.4-0.7-0.7c0,0,0,0,0,0V8.2c0-0.4,0.3-0.8,0.8-0.8c0,0,0,0,0,0C170.7,7.9,176.8,14,177.2,21.7
				C177.2,21.7,177.2,21.7,177.2,21.7z M172.7,21.7c0,0.4-0.3,0.8-0.8,0.8h-1.5c-0.4,0-0.7-0.3-0.7-0.7c-0.3-3.6-3.2-6.5-6.8-6.8
				c-0.4,0-0.7-0.4-0.7-0.7v-1.5v0c0-0.4,0.3-0.8,0.8-0.8c0,0,0,0,0.1,0C168.2,12.4,172.3,16.5,172.7,21.7
				C172.7,21.7,172.7,21.7,172.7,21.7z"/>
		</g>
	</g>
</g>
</svg>
